<mxfile host="app.diagrams.net" modified="2022-07-05T00:58:45.294Z" agent="5.0 (Windows)" etag="cpZMo0Wt3KCQNNTryYoZ" version="20.0.4" type="github">
  <diagram id="Znws06UFY6ib-cEfeB6d" name="Page-1">
    <mxGraphModel dx="1038" dy="536" grid="1" gridSize="10" guides="1" tooltips="1" connect="1" arrows="1" fold="1" page="1" pageScale="1" pageWidth="827" pageHeight="1169" math="0" shadow="0">
      <root>
        <mxCell id="0" />
        <mxCell id="1" parent="0" />
      </root>
    </mxGraphModel>
  </diagram>
</mxfile>
